<?xml version="1.0" standalone="no"?>
<!DOCTYPE svg PUBLIC "-//W3C//DTD SVG 20010904//EN"
 "http://www.w3.org/TR/2001/REC-SVG-20010904/DTD/svg10.dtd">
<svg version="1.0" xmlns="http://www.w3.org/2000/svg"
 width="1008.000000pt" height="960.000000pt" viewBox="0 0 1008.000000 960.000000"
 preserveAspectRatio="xMidYMid meet">

<g transform="translate(0.000000,960.000000) scale(0.100000,-0.100000)"
fill="#000000" stroke="none">
<path d="M4920 9067 c-3 -2 -52 -7 -110 -10 -328 -18 -772 -115 -1125 -244
-983 -361 -1800 -1072 -2302 -2003 -733 -1361 -659 -3040 191 -4345 263 -403
632 -796 1021 -1087 531 -397 1140 -663 1795 -782 283 -52 400 -61 770 -61
364 1 508 13 790 66 1131 215 2138 888 2773 1854 386 589 616 1240 681 1934
30 314 18 751 -29 1061 -159 1048 -720 2018 -1551 2682 -268 213 -465 339
-774 493 -447 223 -905 359 -1420 421 -127 15 -699 32 -710 21z m557 -68
c1010 -83 1936 -510 2649 -1223 595 -596 991 -1333 1157 -2156 90 -443 104
-933 41 -1400 -105 -782 -450 -1546 -973 -2155 -721 -841 -1714 -1355 -2821
-1461 -237 -22 -675 -15 -900 16 -825 111 -1538 422 -2174 949 -124 102 -378
352 -493 486 -1114 1289 -1338 3120 -569 4640 322 635 816 1196 1405 1594 616
416 1316 657 2071 714 109 8 490 6 607 -4z"/>
<path d="M5341 8486 c-27 -287 -27 -272 4 -280 15 -4 29 -5 31 -4 6 6 12 62
20 162 12 170 14 169 72 -11 l52 -160 41 -7 c23 -4 43 -5 45 -4 1 2 11 94 21
205 l19 201 -33 4 c-23 3 -33 0 -33 -10 0 -30 -21 -258 -26 -282 -4 -18 -20
18 -58 137 -28 89 -54 164 -56 166 -3 2 -23 7 -46 9 l-41 6 -12 -132z"/>
<path d="M4749 8589 c-49 -29 -71 -70 -77 -144 -12 -153 56 -255 171 -255 97
0 152 74 150 203 -1 87 -27 154 -75 190 -41 30 -123 33 -169 6z m118 -53 c36
-30 53 -84 53 -162 0 -70 -15 -104 -54 -123 -56 -26 -99 16 -118 116 -14 76
-4 129 32 165 35 34 50 35 87 4z"/>
<path d="M4243 8513 c-13 -2 -23 -7 -23 -11 0 -4 21 -94 46 -199 43 -175 49
-193 68 -193 58 1 58 1 -35 373 -6 20 -15 36 -22 36 -7 -1 -22 -4 -34 -6z"/>
<path d="M6005 8314 c-93 -138 -115 -178 -104 -185 30 -19 56 -9 83 32 22 33
32 40 49 35 12 -4 43 -12 70 -18 l47 -11 0 -54 c0 -29 1 -53 3 -53 1 0 17 -4
36 -10 l33 -9 -6 192 c-9 241 -9 243 -48 251 -17 3 -34 6 -37 6 -4 0 -60 -79
-126 -176z m143 -43 l-3 -49 -52 17 -51 16 51 84 52 84 3 -51 c2 -29 2 -74 0
-101z"/>
<path d="M3770 8364 c-144 -58 -132 -51 -119 -76 6 -13 13 -24 14 -26 2 -2 20
4 41 13 21 8 41 12 44 8 4 -5 33 -75 65 -158 32 -82 60 -153 64 -156 3 -4 20
0 38 7 l31 13 -64 163 c-35 89 -64 163 -64 164 0 1 18 9 40 18 41 16 45 22 34
50 -9 22 -27 19 -124 -20z"/>
<path d="M6633 8273 c-8 -21 -46 -105 -83 -186 l-68 -148 56 -25 c31 -14 75
-34 98 -44 l40 -18 11 28 c11 28 10 29 -44 51 -30 12 -57 27 -59 33 -3 7 27
81 66 165 39 85 69 155 68 156 -11 9 -49 25 -58 25 -6 0 -18 -17 -27 -37z"/>
<path d="M3237 8106 c-23 -13 -35 -26 -32 -36 3 -8 20 -94 40 -190 50 -250 40
-224 76 -203 32 19 32 22 14 96 -6 22 0 28 57 61 l63 35 36 -35 c37 -36 37
-36 68 -19 18 9 31 20 29 24 -2 4 -73 71 -158 148 l-156 140 -37 -21z m107
-125 l68 -69 -46 -27 c-26 -15 -49 -26 -51 -24 -10 10 -50 189 -42 189 1 0 33
-31 71 -69z"/>
<path d="M4945 7820 c-741 -50 -1429 -368 -1951 -901 -361 -370 -605 -785
-750 -1276 -127 -434 -151 -957 -64 -1418 174 -922 785 -1721 1635 -2140 327
-161 652 -256 1010 -296 171 -19 537 -17 700 5 371 50 666 141 995 307 528
266 973 690 1266 1205 469 827 522 1846 140 2707 -159 359 -364 657 -641 932
-454 452 -1039 750 -1660 845 -234 35 -453 45 -680 30z m585 -45 c347 -47 651
-141 961 -295 310 -154 556 -336 814 -601 442 -453 717 -1010 817 -1654 30
-190 32 -635 5 -820 -102 -680 -386 -1252 -856 -1722 -468 -467 -1037 -752
-1711 -855 -165 -26 -580 -31 -750 -10 -470 59 -921 224 -1307 481 -741 493
-1214 1256 -1329 2146 -21 162 -24 515 -5 670 66 557 261 1048 583 1477 519
689 1284 1116 2148 1198 132 12 492 4 630 -15z"/>
<path d="M3210 5304 c0 -5 353 -497 372 -518 4 -6 8 110 8 257 l0 267 -190 0
c-104 0 -190 -3 -190 -6z"/>
<path d="M3864 5018 c-110 -160 -203 -299 -207 -308 -7 -13 44 -91 220 -333
l228 -317 224 0 c177 0 221 3 213 13 -50 62 -445 614 -445 622 0 6 92 146 206
313 l206 302 -224 0 -223 0 -198 -292z"/>
<path d="M4670 4685 l0 -625 190 0 190 0 2 353 3 352 235 -352 235 -352 198
-1 197 0 0 625 0 625 -185 0 -185 0 0 -360 c0 -198 -4 -360 -8 -360 -8 0 -132
192 -405 622 l-62 97 -202 0 -203 1 0 -625z"/>
<path d="M6202 4868 c4 -419 5 -446 25 -505 25 -76 72 -152 121 -194 159 -140
524 -172 747 -65 90 42 153 103 196 187 52 104 58 168 59 617 l0 402 -200 0
-199 0 -3 -407 c-3 -385 -4 -410 -23 -448 -29 -58 -91 -88 -169 -82 -69 6
-103 27 -131 83 -19 37 -20 62 -23 447 l-3 407 -200 0 -200 0 3 -442z"/>
<path d="M3200 4327 l0 -267 190 0 c105 0 190 2 190 4 0 4 -361 507 -376 525
-2 2 -4 -116 -4 -262z"/>
<path d="M2770 7790 c-28 -21 -36 -7 86 -150 44 -52 84 -101 88 -108 4 -7 -60
21 -143 63 -82 41 -156 75 -164 75 -14 0 -57 -40 -57 -54 0 -9 252 -306 259
-306 3 1 16 9 29 20 l23 19 -100 118 c-55 64 -98 119 -96 121 2 2 39 -14 82
-36 43 -22 111 -57 150 -76 l73 -36 32 29 32 29 -122 145 c-67 79 -128 149
-135 155 -9 8 -19 5 -37 -8z"/>
<path d="M7418 7698 c-112 -133 -118 -143 -118 -202 0 -52 34 -100 87 -122 77
-33 117 -11 236 131 54 63 97 118 97 123 0 6 -12 17 -26 27 -31 20 -17 32
-144 -118 -46 -55 -93 -102 -104 -107 -29 -11 -74 14 -82 45 -8 31 2 46 111
174 47 55 85 104 85 109 0 4 -11 19 -24 31 l-23 22 -95 -113z"/>
<path d="M7836 7219 l-158 -131 22 -23 c27 -29 20 -33 170 93 52 44 96 79 97
78 1 -1 -32 -67 -72 -146 -41 -80 -74 -152 -75 -161 0 -15 39 -59 54 -59 4 0
77 57 161 127 l152 127 -20 27 -20 28 -99 -82 c-122 -101 -152 -124 -147 -111
2 5 37 75 78 155 l75 146 -25 31 c-13 17 -26 31 -30 31 -3 1 -76 -58 -163
-130z"/>
<path d="M2007 6971 l-17 -29 132 -86 c73 -47 126 -86 118 -86 -8 0 -84 12
-169 27 l-154 27 -23 -30 c-13 -16 -24 -33 -24 -39 0 -5 42 -37 93 -69 273
-175 246 -161 262 -140 8 10 15 24 15 30 0 6 -57 48 -126 93 -70 45 -125 83
-123 85 2 3 78 -9 168 -25 91 -16 165 -28 166 -26 1 1 12 17 24 35 13 19 20
37 15 41 -5 5 -74 50 -154 101 -80 51 -154 99 -165 106 -19 12 -23 11 -38 -15z"/>
<path d="M8227 6703 l-176 -107 15 -28 c8 -15 20 -28 26 -28 8 0 330 191 346
205 2 1 -5 17 -16 34 l-18 31 -177 -107z"/>
<path d="M8440 6308 c-85 -72 -157 -135 -159 -140 -7 -18 22 -68 39 -68 27 0
404 41 407 44 6 6 -19 66 -27 66 -5 0 -72 -9 -150 -21 -77 -11 -146 -19 -152
-17 -7 3 45 48 115 102 l126 97 -16 34 c-9 19 -19 35 -22 34 -3 0 -76 -59
-161 -131z"/>
<path d="M1670 6334 c-121 -103 -57 -261 126 -309 130 -34 224 26 224 145 0
74 -38 121 -130 164 -79 37 -176 37 -220 0z m200 -77 c79 -40 109 -81 88 -124
-20 -43 -62 -59 -118 -44 -107 28 -189 96 -174 145 22 72 88 80 204 23z"/>
<path d="M8638 5761 c-103 -26 -189 -49 -192 -51 -5 -6 38 -198 47 -207 3 -3
17 -3 31 1 l24 6 -18 71 c-13 51 -15 71 -7 74 28 9 93 25 103 25 6 0 17 -27
24 -60 12 -56 14 -60 41 -60 33 0 34 5 14 80 -8 30 -15 56 -15 57 0 0 23 7 51
13 60 15 60 14 78 -66 9 -39 17 -54 29 -54 39 1 42 12 23 90 -11 41 -22 87
-25 103 -4 15 -10 27 -14 26 -4 -1 -91 -22 -194 -48z"/>
<path d="M1456 5792 c-3 -3 -6 -17 -6 -32 0 -26 9 -31 143 -86 l142 -59 -157
-3 -158 -3 -6 -27 c-3 -15 -8 -34 -10 -43 -3 -13 27 -29 136 -74 77 -32 142
-61 144 -64 2 -3 -67 -4 -154 -2 l-157 3 -5 -31 -5 -31 209 0 c223 0 215 -2
220 53 3 28 -1 30 -142 89 -80 33 -148 63 -152 66 -4 4 69 5 161 4 l169 -4 7
42 c4 23 5 43 3 45 -3 3 -214 95 -345 150 -17 7 -34 11 -37 7z"/>
<path d="M8755 5214 c-77 -7 -157 -13 -178 -13 -37 -1 -38 -2 -35 -33 l3 -33
89 0 c64 0 90 -4 94 -13 9 -27 -27 -59 -97 -86 l-71 -28 0 -39 c0 -21 2 -39 5
-39 21 0 185 86 185 97 0 8 14 -1 34 -21 36 -39 61 -44 115 -25 55 19 71 80
55 203 -8 53 14 50 -199 30z m147 -89 c8 -41 -13 -70 -54 -73 -28 -2 -40 2
-52 20 -16 23 -21 60 -9 71 3 4 30 7 59 7 47 0 52 -2 56 -25z"/>
<path d="M1520 4905 c0 -62 1 -65 24 -65 21 0 25 6 28 33 3 32 3 32 58 32 l55
0 3 -41 c9 -127 -200 -172 -282 -61 -23 31 -26 99 -6 136 10 19 8 21 -23 21
-40 0 -47 -14 -47 -99 0 -78 30 -134 88 -169 40 -23 58 -27 122 -26 105 0 160
33 195 116 17 42 20 124 5 162 -9 26 -11 26 -115 26 l-105 0 0 -65z"/>
<path d="M8560 4621 c-5 -11 -10 -49 -10 -84 0 -78 21 -111 80 -127 59 -16 99
-1 138 51 76 100 97 111 128 64 14 -21 15 -32 6 -67 -6 -23 -10 -43 -9 -44 1
-1 14 -4 29 -8 25 -6 27 -4 38 47 25 122 -55 201 -159 157 -14 -6 -45 -38 -68
-70 -44 -61 -64 -71 -103 -50 -26 14 -32 52 -16 98 8 22 12 43 9 46 -14 13
-53 5 -63 -13z"/>
<path d="M1650 4339 c-58 -10 -146 -26 -196 -34 l-90 -17 4 -29 c5 -36 6 -36
182 -5 74 14 136 23 138 21 1 -1 -63 -44 -143 -95 l-146 -94 7 -40 c3 -23 8
-42 9 -44 3 -3 330 51 383 64 20 4 23 9 17 32 -4 15 -8 29 -10 31 -2 2 -70 -8
-151 -23 -81 -14 -149 -24 -151 -22 -2 2 58 43 134 92 76 48 140 89 142 90 6
5 -10 94 -17 93 -4 -1 -54 -9 -112 -20z"/>
<path d="M8484 4074 c-3 -19 -5 -36 -3 -38 7 -6 391 -87 395 -83 2 2 7 17 10
34 7 37 26 30 -201 78 -93 20 -175 38 -182 40 -7 2 -15 -10 -19 -31z"/>
<path d="M1725 3673 c-88 -68 -164 -128 -169 -133 -4 -4 -3 -25 4 -45 l12 -38
217 6 c119 4 217 7 218 7 0 0 -3 15 -9 33 -10 33 -11 33 -63 29 -58 -5 -52
-11 -85 85 l-18 51 39 28 c41 28 46 45 26 80 -11 20 -19 16 -172 -103z m77
-90 c21 -58 16 -63 -67 -63 -33 0 -70 -3 -82 -6 -13 -4 -23 -2 -23 2 0 8 137
111 150 113 3 1 13 -20 22 -46z"/>
<path d="M8353 3627 l-10 -33 164 -59 c148 -54 164 -62 158 -80 -18 -64 -17
-72 6 -78 29 -8 29 -7 75 122 36 100 36 104 19 117 -27 20 -31 18 -49 -26 -9
-22 -20 -40 -25 -40 -5 0 -77 25 -160 55 -83 30 -155 55 -160 55 -4 0 -12 -15
-18 -33z"/>
<path d="M2051 3125 l-54 -115 -56 6 c-31 4 -84 9 -118 13 l-61 7 19 -38 c19
-37 21 -38 77 -39 31 0 80 -4 107 -7 l50 -7 -78 -43 -78 -43 18 -29 c9 -17 21
-30 25 -30 19 0 348 195 348 206 0 6 -8 21 -17 33 l-18 21 -79 -45 c-43 -25
-80 -45 -83 -45 -2 0 19 45 48 100 l53 100 -17 35 c-9 19 -20 35 -25 35 -4 0
-32 -52 -61 -115z"/>
<path d="M8132 3145 c-7 -14 -12 -29 -12 -34 0 -4 30 -24 68 -45 62 -34 73
-46 147 -152 l79 -115 19 36 18 37 -50 69 c-28 38 -51 72 -51 75 0 3 40 3 88
-1 l89 -7 20 35 21 34 -137 8 c-134 7 -137 7 -207 46 -39 21 -74 39 -76 39 -3
0 -10 -11 -16 -25z"/>
<path d="M2426 2394 c-19 -18 -21 -55 -4 -72 7 -7 24 -12 38 -12 14 0 31 5 38
12 7 7 12 24 12 38 0 14 -5 31 -12 38 -17 17 -54 15 -72 -4z"/>
<path d="M7806 2394 c-32 -31 -11 -84 32 -84 35 0 52 16 52 50 0 14 -5 31 -12
38 -17 17 -54 15 -72 -4z"/>
<path d="M3059 2169 c-7 -14 -7 -24 -1 -28 5 -3 59 -37 120 -76 61 -38 111
-73 112 -77 0 -4 -21 -20 -47 -35 -72 -42 -154 -39 -256 10 l-77 36 0 -28 c0
-24 8 -33 58 -59 122 -64 256 -81 338 -41 41 19 104 79 104 98 0 8 -323 221
-335 221 -2 0 -9 -10 -16 -21z"/>
<path d="M6908 1977 c-215 -137 -235 -152 -225 -169 7 -10 19 -17 27 -15 8 2
98 57 199 121 149 94 187 115 196 104 12 -13 223 -348 244 -386 9 -18 6 -23
-23 -41 -18 -12 -36 -21 -40 -21 -5 0 -36 46 -119 178 l-27 42 -40 -26 c-22
-15 -40 -29 -40 -31 0 -2 31 -53 69 -113 l69 -109 -39 -25 c-21 -14 -41 -26
-43 -26 -2 0 -33 46 -68 102 -34 56 -66 106 -70 112 -4 6 -23 -1 -48 -18 l-41
-27 23 -37 c12 -20 41 -66 63 -102 23 -36 44 -70 48 -77 4 -7 -10 -21 -38 -37
-46 -27 -55 -45 -32 -64 9 -8 82 33 284 160 261 165 271 172 260 195 -12 26
-18 28 -35 11 -9 -9 -15 -10 -20 -2 -4 6 -70 111 -147 232 -77 122 -142 221
-145 221 -3 -1 -111 -69 -242 -152z"/>
<path d="M3458 1833 c-35 -54 -81 -126 -103 -159 l-39 -61 -47 47 c-96 96
-228 156 -321 148 -44 -5 -57 -11 -85 -42 -89 -97 0 -246 206 -344 91 -44 173
-50 218 -16 15 12 70 87 122 167 l94 146 30 -21 c29 -21 30 -21 43 -3 20 27
18 33 -16 50 l-30 15 35 55 c19 30 35 58 35 64 0 9 -60 51 -73 51 -4 0 -35
-44 -69 -97z m-378 -108 c101 -36 190 -134 175 -194 -9 -35 -41 -69 -74 -76
-62 -13 -197 59 -240 129 -46 74 -7 153 75 155 12 1 41 -6 64 -14z"/>
<path d="M6295 1708 c-16 -6 -32 -12 -33 -14 -2 -1 22 -91 54 -199 34 -116 54
-199 48 -204 -5 -4 -107 -37 -226 -72 -200 -59 -217 -65 -212 -84 4 -11 8 -22
10 -24 2 -3 100 24 216 59 117 34 219 63 227 64 10 1 23 -27 42 -89 15 -49 28
-91 28 -92 2 -4 91 29 91 34 0 4 -29 104 -65 223 -36 119 -65 220 -65 223 0 3
15 10 34 17 28 9 32 14 28 36 -5 26 -16 27 -65 8 -11 -4 -20 10 -34 58 -20 67
-29 74 -78 56z"/>
<path d="M3954 1680 c-49 -16 -79 -55 -79 -105 0 -37 6 -50 35 -80 55 -56 131
-88 225 -92 103 -5 143 13 164 73 13 38 13 44 -6 80 -21 42 -72 81 -140 107
-52 20 -158 29 -199 17z m173 -61 c43 -16 83 -59 83 -89 0 -61 -59 -92 -138
-71 -91 25 -129 95 -80 148 24 26 85 31 135 12z"/>
<path d="M5947 1628 c-35 -10 -37 -12 -35 -45 l3 -35 -71 -22 c-40 -11 -72
-24 -73 -28 -4 -30 1 -50 12 -45 57 21 56 22 50 -36 -13 -130 100 -206 241
-162 137 43 187 190 94 277 -24 23 -27 29 -14 33 9 3 23 7 31 10 16 5 19 23 7
42 -6 9 -27 6 -87 -12 -82 -26 -94 -23 -95 18 0 19 -8 20 -63 5z m121 -124
c31 -22 52 -66 52 -111 -1 -120 -156 -130 -191 -12 -14 46 -6 83 26 115 28 28
79 32 113 8z"/>
<path d="M4384 1444 c-21 -74 -41 -140 -45 -145 -3 -5 -124 27 -270 70 -219
65 -265 76 -272 64 -16 -27 1 -39 87 -63 82 -23 87 -26 81 -49 -19 -77 -20
-76 25 -90 23 -7 44 -11 46 -8 2 2 10 21 18 43 17 48 24 48 166 4 100 -31 102
-32 95 -58 -4 -15 -8 -28 -9 -29 -1 -2 -38 8 -82 21 -79 23 -79 23 -87 3 -10
-27 -5 -31 81 -56 58 -18 72 -25 68 -38 -4 -8 -11 -35 -17 -59 -6 -25 -15 -47
-20 -50 -8 -4 -356 93 -368 103 -4 3 4 38 26 114 3 12 -5 20 -28 28 -58 20
-64 16 -82 -49 -20 -71 -21 -104 -4 -117 21 -17 530 -164 537 -156 6 6 149
478 187 614 3 12 -7 19 -41 28 -25 6 -46 11 -48 11 -2 0 -22 -61 -44 -136z"/>
<path d="M5230 1301 l0 -208 -132 -5 c-73 -3 -136 -4 -140 -1 -4 2 -7 80 -7
173 l-1 170 95 0 c95 0 95 0 95 25 l0 25 -142 0 -143 0 3 -207 c2 -115 5 -214
7 -220 3 -10 49 -13 185 -13 l180 0 0 -100 0 -100 48 0 47 0 -4 205 -3 205 31
0 31 0 0 -205 0 -205 45 0 45 0 0 335 0 335 -45 0 -45 0 0 -100 0 -100 -30 0
-30 0 0 100 0 100 -45 0 -45 0 0 -209z"/>
</g>
</svg>
